<?xml version="1.0" encoding="UTF-8" standalone="no"?>
<!-- Created with Inkscape (http://www.inkscape.org/) -->

<svg
   xmlns:dc="http://purl.org/dc/elements/1.1/"
   xmlns:cc="http://creativecommons.org/ns#"
   xmlns:rdf="http://www.w3.org/1999/02/22-rdf-syntax-ns#"
   xmlns:svg="http://www.w3.org/2000/svg"
   xmlns="http://www.w3.org/2000/svg"
   xmlns:sodipodi="http://sodipodi.sourceforge.net/DTD/sodipodi-0.dtd"
   xmlns:inkscape="http://www.inkscape.org/namespaces/inkscape"
   width="700mm"
   height="700mm"
   viewBox="0 0 700 700"
   version="1.1"
   id="svg2438"
   inkscape:export-filename="C:\Users\suitedoalex\sites\carrier-logo-0.png"
   inkscape:export-xdpi="148.6263"
   inkscape:export-ydpi="148.6263"
   inkscape:version="0.92.4 (5da689c313, 2019-01-14)"
   sodipodi:docname="carrier-logo.svg">
  <defs
     id="defs2432" />
  <sodipodi:namedview
     id="base"
     pagecolor="#ffffff"
     bordercolor="#666666"
     borderopacity="1.0"
     inkscape:pageopacity="0.0"
     inkscape:pageshadow="2"
     inkscape:zoom="0.175"
     inkscape:cx="1414.0004"
     inkscape:cy="1281.881"
     inkscape:document-units="mm"
     inkscape:current-layer="layer1"
     showgrid="false"
     inkscape:window-width="1600"
     inkscape:window-height="837"
     inkscape:window-x="-8"
     inkscape:window-y="-8"
     inkscape:window-maximized="1" />
  <metadata
     id="metadata2435">
    <rdf:RDF>
      <cc:Work
         rdf:about="">
        <dc:format>image/svg+xml</dc:format>
        <dc:type
           rdf:resource="http://purl.org/dc/dcmitype/StillImage" />
        <dc:title></dc:title>
      </cc:Work>
    </rdf:RDF>
  </metadata>
  <g
     inkscape:label="Layer 1"
     inkscape:groupmode="layer"
     id="layer1"
     transform="translate(0,403)">
    <g
       id="g1488"
       transform="matrix(3.6733893,0,0,-3.6733893,77.989196,-53.00551)"
       inkscape:export-xdpi="18.67573"
       inkscape:export-ydpi="18.67573">
      <path
         d="M 0,0 C 0,16.851 33.151,30.513 74.047,30.513 114.948,30.509 148.098,16.847 148.098,0 c 0,-16.853 -33.15,-30.516 -74.051,-30.516 C 33.151,-30.516 0,-16.853 0,0"
         style="fill:#17479e;fill-opacity:1;fill-rule:nonzero;stroke:none"
         id="path1490"
         inkscape:connector-curvature="0" />
    </g>
    <g
       id="g1492"
       transform="matrix(3.6733893,0,0,-3.6733893,88.792636,-53.00551)"
       inkscape:export-xdpi="18.67573"
       inkscape:export-ydpi="18.67573">
      <path
         d="m 0,0 c 0,14.949 31.84,27.063 71.105,27.063 39.277,0 71.118,-12.118 71.118,-27.063 0,-14.952 -31.841,-27.066 -71.118,-27.066 C 31.836,-27.066 0,-14.952 0,0"
         style="fill:#ffffff;fill-opacity:1;fill-rule:nonzero;stroke:none"
         id="path1494"
         inkscape:connector-curvature="0" />
    </g>
    <g
       id="g1496"
       transform="matrix(3.6733893,0,0,-3.6733893,91.562436,-53.00551)"
       inkscape:export-xdpi="18.67573"
       inkscape:export-ydpi="18.67573">
      <path
         d="M 0,0 C 0,14.155 31.5,25.636 70.352,25.636 109.21,25.633 140.711,14.155 140.711,0 c 0,-14.161 -31.505,-25.642 -70.359,-25.642 C 31.5,-25.642 0,-14.161 0,0"
         style="fill:#17479e;fill-opacity:1;fill-rule:nonzero;stroke:none"
         id="path1498"
         inkscape:connector-curvature="0" />
    </g>
    <g
       id="g1500"
       transform="matrix(3.6733893,0,0,-3.6733893,208.21458,-25.32288)"
       inkscape:export-xdpi="18.67573"
       inkscape:export-ydpi="18.67573">
      <path
         d="m 0,0 c 1.183,0.386 3.598,1.749 4.819,3.155 0.231,0.262 0.227,0.657 0,0.93 L 4.81,4.098 C 4.567,4.389 4.136,4.417 3.86,4.162 3.003,3.362 1.765,2.529 0.771,2.069 c -1.48,-0.731 -3.307,-1.308 -5.153,-0.9 -3.869,0.849 -4.672,5.227 -2.93,9.635 1.202,3.05 4.329,9.394 11.794,9.274 0.765,0.021 1.704,-0.09 1.409,-0.964 C 5.6,18.24 5.639,18.061 5.729,17.663 5.843,17.157 6.315,16.326 7.61,16.326 c 1.295,0 2.242,0.828 2.358,1.881 0.114,1.057 -0.609,2.064 -1.042,2.397 -0.447,0.326 -1.695,1.065 -3.812,1.094 -0.302,0.006 -0.615,0.006 -0.946,0 C -2.708,21.53 -11.502,16.322 -12.594,7.368 -13.209,2.283 -8.581,-3.041 0,0"
         style="fill:#ffffff;fill-opacity:1;fill-rule:nonzero;stroke:none"
         id="path1502"
         inkscape:connector-curvature="0" />
    </g>
    <g
       id="g1504"
       transform="matrix(3.6733893,0,0,-3.6733893,471.93817,-75.18916)"
       inkscape:export-xdpi="18.67573"
       inkscape:export-ydpi="18.67573">
      <path
         d="M 0,0 C 1.04,0 1.334,-1.21 1.253,-1.933 1.062,-3.581 0.244,-4.866 -1.179,-5.705 -2.405,-6.424 -4.119,-6.803 -5.457,-6.71 -4.89,-4.549 -2.416,-0.002 0,0 m 4.528,-2.25 c 0,2.658 -2.167,3.56 -4.116,3.656 -5.276,0.27 -10.222,-4.689 -10.222,-10.59 0,-3.724 2.549,-5.653 5.484,-5.653 2.73,0 4.987,1.576 6.179,2.823 0.355,0.347 0.67,0.697 0.919,0.988 0.184,0.22 0.184,0.547 0.003,0.771 L 2.77,-10.248 C 2.542,-9.973 2.134,-9.941 1.876,-10.184 1.778,-10.277 1.665,-10.381 1.541,-10.488 1.276,-10.722 0.959,-11.004 0.586,-11.292 0.482,-11.373 0.379,-11.45 0.27,-11.528 l -0.007,-0.003 -0.165,-0.119 -0.077,-0.052 -0.082,-0.053 c -0.71,-0.47 -1.568,-0.874 -2.542,-0.987 -2.089,-0.24 -3.495,0.8 -3.517,2.765 -0.008,0.398 0.116,1.257 0.334,1.927 2.678,-0.088 10.314,0.736 10.314,5.8"
         style="fill:#ffffff;fill-opacity:1;fill-rule:nonzero;stroke:none"
         id="path1506"
         inkscape:connector-curvature="0" />
    </g>
    <g
       id="g1508"
       transform="matrix(3.6733893,0,0,-3.6733893,275.85637,-70.5534)"
       inkscape:export-xdpi="18.67573"
       inkscape:export-ydpi="18.67573">
      <path
         d="m 0,0 c -0.253,-2.932 -4.534,-11.228 -7.122,-10.228 -2.598,1.011 -0.006,5.794 0.917,7.377 0.984,1.65 3.144,4.188 4.941,4.179 C -0.532,1.317 0.064,0.741 0,0 M 1.162,2.701 0.767,1.794 0.752,1.759 C 0.689,1.661 0.042,2.655 -1.763,2.681 -4.048,2.71 -6.847,0.81 -8.55,-1.089 c -1.849,-2.104 -3.199,-4.89 -3.322,-7.976 -0.081,-1.968 0.693,-3.284 2.483,-3.756 1.591,-0.418 3.939,0.586 6.035,3.351 -0.141,-1.223 -0.167,-1.675 0,-2.178 0.197,-0.587 0.683,-1.216 1.511,-1.257 0.648,-0.036 1.276,0.144 1.885,0.459 1.541,0.781 2.827,2.277 3.863,3.779 0.159,0.237 0.101,0.567 -0.139,0.73 L 3.76,-7.932 c -0.237,0.16 -0.554,0.101 -0.726,-0.129 -0.509,-0.735 -1.386,-1.884 -1.806,-2.137 -0.172,-0.12 -0.331,-0.191 -0.476,-0.191 -0.275,0 -0.341,0.405 -0.327,0.644 0.018,0.644 0.501,1.963 0.663,2.536 0,0 2.16,6.25 2.875,8.572 L 4.342,2.509 C 4.392,2.655 4.28,2.813 4.122,2.813 H 1.331 c -0.095,0 -0.14,-0.044 -0.169,-0.112"
         style="fill:#ffffff;fill-opacity:1;fill-rule:nonzero;stroke:none"
         id="path1510"
         inkscape:connector-curvature="0" />
    </g>
    <g
       id="g1512"
       transform="matrix(3.6733893,0,0,-3.6733893,427.94938,-80.89035)"
       inkscape:export-xdpi="18.67573"
       inkscape:export-ydpi="18.67573">
      <path
         d="m 0,0 c 0.246,0 0.428,-0.246 0.346,-0.489 -0.877,-2.71 -3.636,-11.408 -3.802,-11.92 -0.316,-0.991 0.499,-1.004 0.852,-0.81 0.807,0.449 1.584,1.353 2.098,2.049 0.082,0.104 0.143,0.195 0.198,0.274 0.181,0.258 0.532,0.32 0.79,0.145 l 0.01,-0.011 c 0.253,-0.174 0.321,-0.517 0.153,-0.77 -0.962,-1.463 -2.462,-3.203 -3.991,-3.821 -0.686,-0.279 -1.935,-0.673 -2.933,0.185 -0.495,0.427 -1.108,1.373 -0.532,3.231 0.616,1.985 3.119,9.859 3.686,11.607 0.061,0.195 0.249,0.33 0.454,0.33"
         style="fill:#ffffff;fill-opacity:1;fill-rule:nonzero;stroke:none"
         id="path1514"
         inkscape:connector-curvature="0" />
    </g>
    <g
       id="g1516"
       transform="matrix(3.6733893,0,0,-3.6733893,426.56812,-87.18278)"
       inkscape:export-xdpi="18.67573"
       inkscape:export-ydpi="18.67573">
      <path
         d="M 0,0 C 1.138,0 2.174,0.807 2.318,1.805 2.462,2.799 1.651,3.604 0.512,3.604 -0.621,3.608 -1.661,2.799 -1.804,1.805 -1.946,0.807 -1.133,0 0,0"
         style="fill:#ffffff;fill-opacity:1;fill-rule:nonzero;stroke:none"
         id="path1518"
         inkscape:connector-curvature="0" />
    </g>
    <g
       id="g1520"
       transform="matrix(3.6733893,0,0,-3.6733893,351.30044,-75.75124)"
       inkscape:export-xdpi="18.67573"
       inkscape:export-ydpi="18.67573">
      <path
         d="M 0,0 C -0.143,0.744 -0.596,1.295 -1.367,1.496 -1.463,1.525 -1.568,1.541 -1.675,1.558 -4.313,1.885 -6.352,-0.955 -7.733,-3.77 l -0.101,0.04 c 0.45,1.339 0.69,2.508 0.772,2.939 0.291,1.62 -0.483,2.29 -1.074,2.384 -0.598,0.091 -1.352,-0.126 -2.185,-0.628 -1.393,-0.832 -2.875,-2.84 -3.394,-3.588 -0.074,-0.107 -0.148,-0.217 -0.229,-0.337 -0.156,-0.236 -0.087,-0.558 0.151,-0.706 l 0.029,-0.017 c 0.23,-0.149 0.544,-0.073 0.688,0.16 l 0.087,0.132 c 0.528,0.789 0.994,1.344 1.551,1.933 0.524,0.548 1.011,0.934 1.289,0.952 0.336,0.02 0.258,-0.327 0.21,-0.495 -0.543,-1.823 -3.257,-10.836 -3.821,-12.711 -0.054,-0.168 0.078,-0.333 0.249,-0.333 l 2.87,-0.011 c 0.117,0 0.22,0.081 0.251,0.193 0.808,2.625 1.242,3.685 1.569,4.737 0.511,1.642 1.139,3.112 1.729,4.265 0.512,0.985 1.001,1.729 1.256,2.143 0.769,1.231 1.26,1.542 1.777,1.766 0.157,0.067 0.263,0.042 0.309,-0.098 0.085,-0.239 -0.207,-0.466 -0.253,-0.783 -0.083,-0.587 0.456,-1.018 0.649,-1.114 0.838,-0.441 2.026,-0.063 2.667,0.673 C -0.185,-1.674 0.155,-0.839 0,0"
         style="fill:#ffffff;fill-opacity:1;fill-rule:nonzero;stroke:none"
         id="path1522"
         inkscape:connector-curvature="0" />
    </g>
    <g
       id="g1524"
       transform="matrix(3.6733893,0,0,-3.6733893,405.58204,-75.75124)"
       inkscape:export-xdpi="18.67573"
       inkscape:export-ydpi="18.67573">
      <path
         d="M 0,0 C -0.139,0.744 -0.591,1.295 -1.363,1.496 -1.46,1.525 -1.566,1.541 -1.674,1.558 -4.307,1.885 -6.35,-0.955 -7.733,-3.77 l -0.1,0.04 c 0.45,1.339 0.689,2.508 0.767,2.939 0.298,1.62 -0.469,2.29 -1.068,2.384 -0.602,0.091 -1.351,-0.126 -2.186,-0.628 -1.389,-0.832 -2.876,-2.84 -3.394,-3.588 -0.074,-0.107 -0.149,-0.217 -0.226,-0.337 -0.16,-0.236 -0.088,-0.558 0.152,-0.706 l 0.026,-0.017 c 0.236,-0.149 0.543,-0.073 0.695,0.16 l 0.082,0.132 c 0.524,0.789 0.997,1.344 1.547,1.933 0.521,0.548 1.014,0.934 1.295,0.952 0.331,0.02 0.257,-0.327 0.205,-0.495 -0.541,-1.823 -3.254,-10.836 -3.824,-12.711 -0.053,-0.168 0.077,-0.333 0.259,-0.333 l 2.861,-0.011 c 0.118,0 0.224,0.081 0.261,0.193 0.8,2.625 1.236,3.685 1.564,4.737 0.514,1.642 1.139,3.112 1.728,4.265 0.506,0.985 1.002,1.729 1.257,2.143 0.769,1.231 1.258,1.542 1.775,1.766 0.152,0.067 0.262,0.042 0.311,-0.098 0.081,-0.239 -0.211,-0.466 -0.256,-0.783 -0.085,-0.587 0.46,-1.018 0.654,-1.114 0.835,-0.441 2.018,-0.063 2.662,0.673 C -0.185,-1.674 0.163,-0.839 0,0"
         style="fill:#ffffff;fill-opacity:1;fill-rule:nonzero;stroke:none"
         id="path1526"
         inkscape:connector-curvature="0" />
    </g>
    <g
       id="g1528"
       transform="matrix(3.6733893,0,0,-3.6733893,545.31781,-75.75124)"
       inkscape:export-xdpi="18.67573"
       inkscape:export-ydpi="18.67573">
      <path
         d="m 0,0 c -0.143,0.744 -0.6,1.295 -1.367,1.496 -0.097,0.029 -0.201,0.045 -0.307,0.062 -2.637,0.327 -4.678,-2.513 -6.06,-5.328 l -0.1,0.04 c 0.449,1.339 0.689,2.508 0.764,2.939 0.299,1.62 -0.47,2.29 -1.065,2.384 -0.6,0.091 -1.35,-0.126 -2.183,-0.628 -1.396,-0.832 -2.882,-2.84 -3.394,-3.588 -0.078,-0.107 -0.155,-0.217 -0.233,-0.337 -0.159,-0.236 -0.087,-0.558 0.152,-0.706 l 0.029,-0.017 c 0.237,-0.149 0.541,-0.073 0.693,0.16 l 0.085,0.132 c 0.527,0.789 0.99,1.344 1.545,1.933 0.527,0.548 1.015,0.934 1.291,0.952 0.334,0.02 0.262,-0.327 0.211,-0.495 -0.539,-1.823 -3.261,-10.836 -3.822,-12.711 -0.054,-0.168 0.074,-0.333 0.252,-0.333 l 2.867,-0.011 c 0.117,0 0.224,0.081 0.255,0.193 0.807,2.625 1.238,3.685 1.569,4.737 0.513,1.642 1.139,3.112 1.732,4.265 0.501,0.985 1,1.729 1.253,2.143 0.767,1.231 1.26,1.542 1.775,1.766 0.156,0.067 0.261,0.042 0.311,-0.098 0.081,-0.239 -0.207,-0.466 -0.253,-0.783 -0.087,-0.587 0.456,-1.018 0.648,-1.114 0.835,-0.441 2.021,-0.063 2.661,0.673 C -0.186,-1.674 0.16,-0.839 0,0"
         style="fill:#ffffff;fill-opacity:1;fill-rule:nonzero;stroke:none"
         id="path1530"
         inkscape:connector-curvature="0" />
    </g>
  </g>
</svg>
